Coordinates
version=1
nRows=21
nColumns=33
inDegrees=yes

Units are S.I. units (second, meters, Newtons, ...)
Angles are in degrees.

endheader
time	ground_thorax_rot_x	ground_thorax_rot_y	ground_thorax_rot_z	ground_thorax_tx	ground_thorax_ty	ground_thorax_tz	clav_prot_r	clav_elev_r	scapula_abduction_r	scapula_elevation_r	scapula_upward_rot_r	scapula_winging_r	shoulder_elv_r	plane_of_elev_r	axial_rot_r	elbow_flexion_r	pro_sup_r	wrist_flex_r	wrist_dev_r	clav_prot_l	clav_elev_l	scapula_abduction_l	scapula_elevation_l	scapula_upward_rot_l	scapula_winging_l	shoulder_elv_l	plane_of_elev_l	axial_rot_l	elbow_flexion_l	pro_sup_l	wrist_flex_l	wrist_dev_l
     10.50000000	     30.75375024	     26.89070913	     38.04462518	    -70.04917533	    841.01720258	    -38.88706386	     12.60225267	     33.95230714	     28.16419306	     45.00000000	    -45.00000000	   1712.25203038	    432.52115711	     23.29337821	   -172.90332148	   2517.19073152	    152.60869874	     14.10822492	     15.42064008	     -6.15296541	    -45.00000000	    -39.90975691	     45.00000000	    -45.00000000	   4063.97547325	  -4601.80551414	     26.94985635	     35.01330270	   2871.80577219	   -316.40481599	     14.91124439	    -21.60372764
     10.51000000	     30.67371475	     26.97475837	     38.32609731	    -67.94634430	    840.26011770	    -38.89963169	     12.67454767	     33.97233350	     28.26955030	     45.00000000	    -45.00000000	   1712.35922673	    432.48494858	     23.32540160	   -173.13859117	   2517.19623514	    152.87468724	     14.00648104	     15.45279697	     -6.20574449	    -45.00000000	    -39.87843206	     45.00000000	    -45.00000000	   4063.82780209	  -4601.82845812	     26.98134384	     35.28721506	   2871.77821277	   -316.25049689	     14.94929588	    -21.45352776
     10.52000000	     30.58773862	     27.06139810	     38.61042634	    -65.80657529	    839.48382848	    -38.89908594	     12.68423180	     33.98636133	     28.36814241	     45.00000000	    -45.00000000	   1712.45128525	    432.43060858	     23.35925648	   -173.38735694	   2517.18952242	    153.17896862	     13.91221951	     15.49237796	     -6.23237867	    -45.00000000	    -39.84396955	     45.00000000	    -45.00000000	   4063.70438106	  -4601.87412476	     27.03595467	     35.56473953	   2871.76068683	   -316.09461258	     14.97836358	    -21.31249926
     10.53000000	     30.49592698	     27.15600074	     38.87457985	    -63.63372781	    838.68959787	    -38.88479134	     12.68808892	     33.99222589	     28.46083272	     45.00000000	    -45.00000000	   1712.56095498	    432.37592990	     23.37354523	   -173.60899378	   2517.21272523	    153.52693198	     13.80405245	     15.53637862	     -6.25880768	    -45.00000000	    -39.81727804	     45.00000000	    -45.00000000	   4063.56160202	  -4601.91967482	     27.09319036	     35.81158772	   2871.73360720	   -315.93005411	     15.00545121	    -21.16538110
     10.54000000	     30.33333404	     27.30444105	     39.24156287	    -61.42725628	    837.87722537	    -38.85658790	     12.68784230	     33.95383536	     28.44085268	     45.00000000	    -45.00000000	   1712.64968364	    432.39668328	     23.37016476	   -173.88420897	   2517.05876186	    153.89424799	     13.72940306	     15.61258210	     -6.24431041	    -45.00000000	    -39.82079877	     45.00000000	    -45.00000000	   4063.43351031	  -4601.95324459	     27.11525951	     36.03869367	   2871.73781699	   -315.76476382	     15.00756838	    -20.99192044
     10.55000000	     30.32175676	     27.26541163	     39.42122238	    -59.19057008	    837.04800254	    -38.81451953	     12.74480277	     34.08477159	     28.70931188	     45.00000000	    -45.00000000	   1712.73639341	    432.25417529	     23.45257152	   -174.00053335	   2517.24664694	    154.34001337	     13.64732550	     15.57657274	     -6.41440275	    -45.00000000	    -39.70234715	     45.00000000	    -45.00000000	   4063.30331654	  -4601.98924710	     27.18454300	     36.31951208	   2871.66410460	   -315.58105579	     15.02938108	    -20.87067008
     10.56000000	     30.16446675	     27.41734078	     39.74574341	    -56.93032541	    836.20469839	    -38.75846376	     12.70559980	     34.04026040	     28.71906175	     45.00000000	    -45.00000000	   1712.89885753	    432.25652019	     23.41846687	   -174.23164499	   2517.21882289	    154.80607169	     13.56067758	     15.62446068	     -6.37634618	    -45.00000000	    -39.70350315	     45.00000000	    -45.00000000	   4063.17593752	  -4602.02564767	     27.22010098	     36.52585471	   2871.66747008	   -315.40292038	     15.02322092	    -20.70603150
     10.57000000	     30.06939015	     27.48856185	     40.01782399	    -54.63993042	    835.34503618	    -38.68840573	     12.82850077	     34.11266680	     28.84153059	     45.00000000	    -45.00000000	   1712.96183292	    432.17713296	     23.46390431	   -174.37564352	   2517.23857044	    155.32238650	     13.50865874	     15.62636386	     -6.53941585	    -45.00000000	    -39.59695953	     45.00000000	    -45.00000000	   4063.01670277	  -4602.06322966	     27.24687732	     36.73942210	   2871.62695083	   -315.21373616	     15.01021373	    -20.55127871
     10.58000000	     29.95912549	     27.53209159	     40.29522344	    -52.32334842	    834.47202548	    -38.60144344	     12.82210971	     34.14472181	     28.97671017	     45.00000000	    -45.00000000	   1713.09850767	    432.10411917	     23.49848809	   -174.54304578	   2517.33100508	    155.88762658	     13.45389631	     15.61185441	     -6.60617485	    -45.00000000	    -39.53998943	     45.00000000	    -45.00000000	   4062.90889531	  -4602.11047536	     27.27093802	     36.95317836	   2871.58916724	   -315.02005095	     14.99324008	    -20.40824793
     10.59000000	     29.86006333	     27.59297500	     40.56916725	    -49.98014845	    833.58439484	    -38.50004648	     12.88659239	     34.19048998	     29.11470245	     45.00000000	    -45.00000000	   1713.19712844	    432.02767097	     23.51311730	   -174.68645369	   2517.35438699	    156.50658424	     13.42766503	     15.60936118	     -6.71840296	    -45.00000000	    -39.44041917	     45.00000000	    -45.00000000	   4062.78176768	  -4602.16497246	     27.28851247	     37.14981414	   2871.56110376	   -314.82407466	     14.96695015	    -20.26616623
     10.60000000	     29.74293020	     27.66042637	     40.84325977	    -47.61059314	    832.68072606	    -38.38774520	     12.94279850	     34.25542519	     29.23013861	     45.00000000	    -45.00000000	   1713.29615599	    431.94648941	     23.54963259	   -174.81566845	   2517.42265561	    157.17997757	     13.41594647	     15.57557874	     -6.85276754	    -45.00000000	    -39.35641084	     45.00000000	    -45.00000000	   4062.64607589	  -4602.21744598	     27.29808438	     37.34235662	   2871.52796229	   -314.62040456	     14.92843002	    -20.12282752
     10.61000000	     29.50958830	     27.86437034	     41.27092347	    -45.21440370	    831.75712869	    -38.27170696	     12.92517937	     34.18617157	     29.25101505	     45.00000000	    -45.00000000	   1713.44352565	    431.91570168	     23.44389417	   -175.01388211	   2517.43604229	    157.83822024	     13.39276485	     15.56854821	     -6.85145315	    -45.00000000	    -39.32168870	     45.00000000	    -45.00000000	   4062.52856078	  -4602.27085926	     27.28523061	     37.44197345	   2871.49332987	   -314.41891408	     14.88193136	    -19.95254458
     10.62000000	     29.47564414	     27.83778994	     41.40804866	    -42.79735282	    830.81363461	    -38.15426138	     13.00767357	     34.34950290	     29.42802203	     45.00000000	    -45.00000000	   1713.51070456	    431.80234498	     23.54048591	   -175.02225991	   2517.49231934	    158.60241209	     13.40580590	     15.54357890	     -7.07459740	    -45.00000000	    -39.19417113	     45.00000000	    -45.00000000	   4062.37138892	  -4602.32830220	     27.31504157	     37.64246883	   2871.45895833	   -314.21321628	     14.84326592	    -19.83414777
     10.63000000	     29.38191623	     27.87597095	     41.62983970	    -40.35792431	    829.84572585	    -38.03954950	     13.04554464	     34.39331996	     29.52687347	     45.00000000	    -45.00000000	   1713.62256124	    431.73169642	     23.59274292	   -175.13428740	   2517.54014889	    159.39590931	     13.41804853	     15.51951961	     -7.17027796	    -45.00000000	    -39.11631840	     45.00000000	    -45.00000000	   4062.24274405	  -4602.40748505	     27.33471623	     37.79546013	   2871.41631362	   -314.00426591	     14.80126324	    -19.70285769
     10.64000000	     29.19102032	     28.02128979	     41.92220067	    -37.89481597	    828.85095990	    -37.92681941	     12.97707406	     34.37736271	     29.52135597	     45.00000000	    -45.00000000	   1713.80125528	    431.73942755	     23.49637055	   -175.16557459	   2517.50360296	    160.17610574	     13.41350767	     15.54879877	     -7.16819239	    -45.00000000	    -39.08264974	     45.00000000	    -45.00000000	   4062.09588649	  -4602.48020399	     27.33621524	     37.85040414	   2871.40640256	   -313.81120822	     14.74918240	    -19.55300298
     10.65000000	     29.03362655	     28.12223832	     42.21842328	    -35.41380194	    827.82965487	    -37.81476791	     13.11031829	     34.43743428	     29.55105291	     45.00000000	    -45.00000000	   1713.92251342	    431.66571716	     23.52993884	   -175.22798179	   2517.59589825	    160.95315334	     13.40495338	     15.50271837	     -7.35574460	    -45.00000000	    -38.99371395	     45.00000000	    -45.00000000	   4061.92583067	  -4602.52673951	     27.30025389	     37.92558665	   2871.36764612	   -313.61845475	     14.67865922	    -19.37993802
     10.66000000	     28.86837096	     28.20366276	     42.46993616	    -32.91771797	    826.78253125	    -37.69865414	     12.99287728	     34.44672534	     29.59540565	     45.00000000	    -45.00000000	   1714.07644734	    431.63135797	     23.47214966	   -175.28126023	   2517.57908608	    161.73404007	     13.41615647	     15.51861788	     -7.35989748	    -45.00000000	    -38.95526891	     45.00000000	    -45.00000000	   4061.80756171	  -4602.62760042	     27.31195772	     37.96748996	   2871.34938828	   -313.44760039	     14.63602215	    -19.24820527
     10.67000000	     28.79327813	     28.23091341	     42.70151622	    -30.41014267	    825.70872646	    -37.57803126	     13.20210688	     34.54842116	     29.76457686	     45.00000000	    -45.00000000	   1714.10688045	    431.51062513	     23.56777958	   -175.30237775	   2517.69318157	    162.56505822	     13.44958888	     15.42615488	     -7.63975314	    -45.00000000	    -38.77247573	     45.00000000	    -45.00000000	   4061.65990945	  -4602.68137883	     27.29556069	     38.05623534	   2871.30809295	   -313.27676716	     14.58005356	    -19.10294637
     10.68000000	     28.54750349	     28.32584285	     43.02221259	    -27.89570218	    824.60829579	    -37.45325008	     13.17335095	     34.56079665	     29.67775492	     45.00000000	    -45.00000000	   1714.35698306	    431.55774776	     23.51610112	   -175.19920441	   2517.68416492	    163.35406400	     13.45528925	     15.39359284	     -7.68986416	    -45.00000000	    -38.79453867	     45.00000000	    -45.00000000	   4061.49387994	  -4602.70416869	     27.20047489	     37.98297237	   2871.25576671	   -313.11853085	     14.50559613	    -18.89923637
     10.69000000	     28.45741576	     28.41602599	     43.28714436	    -25.37688332	    823.48101609	    -37.32394681	     13.33276132	     34.63896950	     29.83536881	     45.00000000	    -45.00000000	   1714.37187616	    431.41518996	     23.51398083	   -175.23647042	   2517.79327192	    164.12328295	     13.47330996	     15.32937843	     -7.92783365	    -45.00000000	    -38.57745623	     45.00000000	    -45.00000000	   4061.36351615	  -4602.81908546	     27.20762023	     38.01120396	   2871.27318033	   -312.99620009	     14.44475060	    -18.77504403
     10.70000000	     28.23093736	     28.52386199	     43.52983611	    -22.86108154	    822.32986388	    -37.19000953	     13.20117475	     34.65922262	     29.58651726	     45.00000000	    -45.00000000	   1714.65595946	    431.54215383	     23.48897506	   -175.04558292	   2517.65824430	    164.87849845	     13.49171055	     15.35000788	     -7.92636329	    -45.00000000	    -38.62185450	     45.00000000	    -45.00000000	   4061.15416249	  -4602.90780225	     27.11436038	     37.85707960	   2871.26029185	   -312.86476275	     14.35847844	    -18.58481717
